<svg width="275" height="691" viewBox="0 0 275 691" fill="none" xmlns="http://www.w3.org/2000/svg">
<path d="M198.209 289.118V594.161L76.7931 560.697V504L198.209 289.119V289.118ZM196.192 296.801L78.8097 504.532V559.165L196.192 591.51V296.8V296.801Z" fill="black"/>
<path d="M207.808 252.981V606.24L67.1915 567.499V501.832L207.808 252.979V252.981ZM205.791 260.664L69.2058 502.369V565.959L205.791 603.6V260.665V260.664Z" fill="#EAEAEA"/>
<path d="M217.406 216.843V618.338L57.5878 574.306V499.676L217.406 216.843ZM215.39 224.526L59.6118 500.203V572.756L215.39 615.689V224.527V224.526Z" fill="#EAEAEA"/>
<path d="M227.005 180.702V630.424L47.9938 581.095V497.508L227.005 180.701V180.702ZM224.989 188.384L50.0105 498.033V579.554L224.989 627.774V188.384V188.384Z" fill="#EAEAEA"/>
<path d="M236.605 144.564V642.515L38.3936 587.892V495.342L236.605 144.562V144.564ZM234.588 152.247L40.4103 495.876V586.362L234.588 639.866V152.248V152.247Z" fill="#EAEAEA"/>
<path d="M246.204 108.423V654.593L28.7997 594.695V493.175L246.204 108.422V108.423ZM244.187 116.106L30.8164 493.709V593.155L244.187 651.951V116.107V116.106Z" fill="#EAEAEA"/>
<path d="M255.803 72.2793V666.686L19.1979 601.494V491.014L255.803 72.2797V72.2793ZM253.786 79.9622L21.2127 491.537V599.952L253.786 664.035V79.9618V79.9622Z" fill="#EAEAEA"/>
<path d="M265.401 36.143V678.776L9.59413 608.291V488.838L265.401 36.1426V36.143ZM263.384 43.8259L11.6185 489.374V606.749L263.384 676.126V43.8257V43.8259Z" fill="#EAEAEA"/>
<path d="M275 0.000574293V690.853L3.05176e-05 615.091V486.671L275 0V0.000574293ZM272.986 7.68348L2.01718 487.204V613.55L272.986 688.211V7.68348Z" fill="#EAEAEA"/>
</svg>
