<svg width="29" height="29" viewBox="0 0 29 29" fill="none" xmlns="http://www.w3.org/2000/svg">
<path d="M8.13502 20.8638C8.17814 20.907 8.22935 20.9412 8.28571 20.9646C8.34208 20.988 8.4025 21 8.46351 21C8.52453 21 8.58495 20.988 8.64131 20.9646C8.69768 20.9412 8.74889 20.907 8.79201 20.8638L14.4983 15.158L20.2069 20.8638C20.2941 20.951 20.4122 20.9999 20.5354 20.9999C20.6586 20.9999 20.7768 20.951 20.8639 20.8638C20.9511 20.7767 21 20.6586 21 20.5354C21 20.4122 20.9511 20.294 20.8639 20.2069L15.1553 14.5011L20.8616 8.79299C20.9487 8.70587 20.9977 8.58772 20.9977 8.46452C20.9977 8.34132 20.9487 8.22317 20.8616 8.13606C20.7745 8.04894 20.6563 8 20.5331 8C20.4099 8 20.2917 8.04894 20.2046 8.13606L14.4983 13.8442L8.78969 8.13838C8.70086 8.06232 8.58661 8.02257 8.46976 8.02709C8.3529 8.0316 8.24205 8.08004 8.15936 8.16272C8.07667 8.2454 8.02823 8.35624 8.02372 8.47309C8.0192 8.58993 8.05895 8.70417 8.13502 8.79299L13.8413 14.5011L8.13502 20.2092C8.04854 20.2962 8 20.4139 8 20.5365C8 20.6592 8.04854 20.7769 8.13502 20.8638Z" fill="white"/>
<rect x="0.5" y="0.5" width="28" height="28" stroke="white" stroke-opacity="0.6"/>
</svg>
