<svg width="60" height="81" viewBox="0 0 60 81" fill="none" xmlns="http://www.w3.org/2000/svg">
<path d="M2.01914 80.1241L0.331479 80.6453L28.6037 1.15859V5.38181L2.01912 80.1241L2.01914 80.1241ZM3.94712 79.5272L2.25947 80.0495L28.6037 5.98263V10.2039L3.94711 79.5271L3.94712 79.5272ZM5.87426 78.9317L4.18745 79.4538L28.6037 10.8055V15.0276L5.8742 78.9317L5.87426 78.9317ZM7.80197 78.336L6.11431 78.8583L28.6037 15.6285V19.8506L7.80203 78.336L7.80197 78.336ZM9.7291 77.7413L8.04145 78.2617L28.6037 20.4522V24.6735L9.72909 77.7413L9.7291 77.7413ZM11.6571 77.1447L9.96943 77.6659L28.6037 25.274V29.4964L11.6571 77.1447L11.6571 77.1447ZM13.5831 76.5481L11.8963 77.0702L28.6037 30.098V34.3193L13.583 76.5481L13.5831 76.5481ZM15.5119 75.9524L13.8232 76.4736L28.6037 34.921V39.1431L15.5119 75.9524L15.5119 75.9524ZM15.7511 75.8778L28.6037 39.7439V71.9047L15.7511 75.8778V75.8778ZM0.074294 80.7713L0 80.9788L5.78283 79.1917V79.1929L15.4196 76.2124V76.2135L28.8024 72.0736V38.5853V33.7612V28.9383V24.1157V19.2928V14.4699V9.64583V4.82291V0L0.0743027 80.7716L0.074294 80.7713Z" fill="#5B5B5B" fill-opacity="0.5"/>
<path d="M31.3962 5.38163V1.15841L59.6684 80.6459L57.9807 80.1239L31.3962 5.3816L31.3962 5.38163ZM31.3962 10.2037V5.98246L57.7415 80.0485L56.0527 79.5281L31.3962 10.2037L31.3962 10.2037ZM31.3962 15.0275V10.8054L55.8136 79.4536L54.1257 78.9304L31.3962 15.0275L31.3962 15.0275ZM31.3962 19.8504V15.6283L53.8856 78.8569L52.1988 78.3358L31.3962 19.8504L31.3962 19.8504ZM31.3962 24.6733V20.452L51.9584 78.2615L50.2708 77.74L31.3962 24.6733L31.3962 24.6733ZM31.3962 29.4973V25.275L50.0316 77.6657L48.3439 77.1445L31.3962 29.4974L31.3962 29.4973ZM31.3962 34.3191V30.0979L48.1036 77.0691L46.4159 76.5488L31.3962 34.3191L31.3962 34.3191ZM31.3962 39.1432V34.9208L46.1765 76.4733L44.4888 75.9522L31.3962 39.1431L31.3962 39.1432ZM31.3962 71.9046V39.7438L44.2487 75.8776L31.3962 71.9046V71.9046ZM31.1975 0.000976562V4.82389V9.64568V14.4697V19.2926V24.1155V28.9393V33.7611V38.5851V72.0735L44.5803 76.2123V76.2114L54.218 79.1916L54.2171 79.1908L59.9999 80.9786L59.9265 80.7712L31.1975 0.00118195L31.1975 0.000976562Z" fill="#5B5B5B" fill-opacity="0.5"/>
</svg>
