<svg width="25" height="13" viewBox="0 0 25 13" fill="none" xmlns="http://www.w3.org/2000/svg">
<path d="M24.8348 5.88035L19.1531 0.198612C18.949 -0.0397141 18.5903 -0.0674967 18.352 0.13665C18.1136 0.340748 18.0859 0.699433 18.29 0.937759C18.309 0.959975 18.3298 0.980727 18.352 0.99972L23.0621 5.71555H0.568154C0.25439 5.71555 0 5.96994 0 6.28376C0 6.59757 0.25439 6.85191 0.568154 6.85191H23.0621L18.352 11.562C18.1136 11.7661 18.0859 12.1248 18.29 12.3631C18.4942 12.6015 18.8528 12.6292 19.0911 12.4251C19.1133 12.4061 19.1341 12.3854 19.1531 12.3631L24.8348 6.68141C25.0551 6.45988 25.0551 6.10197 24.8348 5.88035Z" fill="white"/>
</svg>
