<svg width="7" height="14" viewBox="0 0 7 14" fill="none" xmlns="http://www.w3.org/2000/svg">
<path d="M3.17423 13.4059L0.107211 10.3389C-0.0214378 10.2287 -0.036435 10.0351 0.0737642 9.90646C0.183937 9.77782 0.377557 9.76282 0.506206 9.87302C0.518198 9.8833 0.5294 9.89447 0.539653 9.90646L3.08528 12.449L3.08528 0.306692C3.08528 0.137321 3.2226 0 3.392 0C3.56139 0 3.69869 0.137321 3.69869 0.306692L3.69869 12.449L6.24123 9.90646C6.3514 9.77782 6.54502 9.76282 6.67367 9.87302C6.80232 9.98322 6.81732 10.1768 6.70712 10.3055C6.69684 10.3175 6.68567 10.3287 6.67367 10.3389L3.60665 13.4059C3.48707 13.5248 3.29387 13.5248 3.17423 13.4059Z" fill="black"/>
</svg>
