<svg width="249" height="625" viewBox="0 0 249 625" fill="none" xmlns="http://www.w3.org/2000/svg">
<path d="M179.316 261.559V537.524L69.4739 507.25V455.957L179.316 261.559V261.559ZM177.492 268.509L71.2983 456.439V505.864L177.492 535.126V268.508V268.509Z" fill="black"/>
<path d="M188 228.867V548.452L60.7875 513.404V453.997L188 228.865V228.867ZM186.175 235.817L62.6099 454.482V512.011L186.175 546.064V235.819V235.817Z" fill="#EAEAEA"/>
<path d="M196.684 196.173V559.397L52.0991 519.562V452.046L196.684 196.173ZM194.859 203.123L53.9301 452.523V518.16L194.859 557.001V203.125V203.123Z" fill="#EAEAEA"/>
<path d="M205.367 163.477V570.331L43.4193 525.704V450.085L205.367 163.477V163.477ZM203.543 170.427L45.2438 450.56V524.31L203.543 567.933V170.427V170.427Z" fill="#EAEAEA"/>
<path d="M214.052 130.783V581.269L34.7343 531.853V448.125L214.052 130.782V130.783ZM212.227 137.734L36.5588 448.608V530.468L212.227 578.872V137.735V137.734Z" fill="#EAEAEA"/>
<path d="M222.735 98.0881V592.196L26.0546 538.007V446.165L222.735 98.0869V98.0881ZM220.911 105.039L27.879 446.648V536.614L220.911 589.805V105.039V105.039Z" fill="#EAEAEA"/>
<path d="M231.42 65.3896V603.136L17.3689 544.158V444.209L231.42 65.39V65.3896ZM229.595 72.3402L19.1916 444.683V542.764L229.595 600.738V72.3399V72.3402Z" fill="#EAEAEA"/>
<path d="M240.104 32.6976V614.074L8.68044 550.307V442.241L240.104 32.6973V32.6976ZM238.279 39.6482L10.5118 442.725V548.912L238.279 611.676V39.648V39.6482Z" fill="#EAEAEA"/>
<path d="M248.787 0.00051955V625L0.000656128 556.459V440.28L248.787 0V0.00051955ZM246.965 6.95107L1.82553 440.763V555.065L246.965 622.609V6.95107Z" fill="#EAEAEA"/>
</svg>
