<svg width="268" height="739" viewBox="0 0 268 739" fill="none" xmlns="http://www.w3.org/2000/svg">
<path d="M-26 309.086V635.196L103.81 599.421V538.808L-26 309.086V309.086ZM-23.8363 317.299L101.654 539.377V597.783L-23.8363 632.362V317.298V317.299Z" fill="#F3F3F3"/>
<path d="M-26 270.454V648.112L124.336 606.695V536.493L-26 270.455V270.454ZM-23.8363 278.668L122.172 537.066V605.048L-23.8363 645.289V278.669V278.668Z" fill="#F3F3F3"/>
<path d="M-26 231.818V661.044L144.854 613.971V534.186L-26 231.819V231.818ZM-23.8363 240.032L142.691 534.748V612.312L-23.8363 658.211V240.031V240.032Z" fill="#F3F3F3"/>
<path d="M-26 193.184V673.969L165.382 621.232V531.872L-26 193.184V193.184ZM-23.8363 201.397L163.22 532.434V619.585L-23.8363 671.135V201.398V201.397Z" fill="#F3F3F3"/>
<path d="M-26 154.548V686.893L185.902 628.498V529.555L-26 154.549V154.548ZM-23.8363 162.761L183.745 530.124V626.859L-23.8363 684.059V162.761Z" fill="#F3F3F3"/>
<path d="M-26 115.911V699.802L206.428 635.768V527.236L-26 115.909V115.911ZM-23.8363 124.124L204.263 527.807V634.121L-23.8363 696.978V124.126V124.124Z" fill="black"/>
<path d="M-26 77.2713V712.731L226.957 643.036V524.926L-26 77.2695V77.2713ZM-23.8363 85.4849L224.792 525.486V641.39L-23.8363 709.898V85.4851V85.4849Z" fill="#F3F3F3"/>
<path d="M-26 38.6398V725.658L247.475 650.304V522.602L-26 38.6396V38.6398ZM-23.8363 46.8534L245.312 523.173V648.656L-23.8363 722.824V46.8519V46.8534Z" fill="#F3F3F3"/>
<path d="M-26 0.000909327V738.569L268 657.573V520.284L-26 0V0.000909327ZM-23.8363 8.21444L265.837 520.855V655.927L-23.8363 735.744V8.21517V8.21444Z" fill="#F3F3F3"/>
</svg>
