<svg width="84" height="212" viewBox="0 0 84 212" fill="none" xmlns="http://www.w3.org/2000/svg">
<path d="M83.6929 148.739V152.291L0.307847 175.33V170.999L83.312 148.067L83.6926 148.739L83.6929 148.739ZM83.6929 152.933V157.264L0.307847 180.303V175.971L83.6929 152.933ZM83.6929 157.903V162.234L0.307847 185.275V180.941L83.6929 157.903V157.903ZM83.6929 162.876V167.206L0.307847 190.245V185.914L83.6929 162.876V162.876ZM83.6929 167.845V172.176L0.307847 195.215V190.887L83.6929 167.845V167.845ZM83.6929 172.818V177.146L0.307847 200.187V195.857L83.6929 172.818V172.818ZM83.6929 177.788V182.118L0.307847 205.16V200.827L83.6929 177.788V177.788ZM83.6929 182.76V187.091L0.307847 210.129V205.799L83.6929 182.76V182.76ZM82.9991 147.513L0.308133 170.36V166.029L80.8829 143.766L82.9994 147.513L82.9991 147.513ZM80.5702 143.213L0.308174 165.39V161.059L78.4539 139.466L80.5704 143.213L80.5702 143.213ZM78.1405 138.913L0.307933 160.417V156.087L76.0238 135.167L78.1403 138.913L78.1405 138.913ZM75.7109 134.613L0.308147 155.447V151.114L73.5924 130.867L75.7111 134.613H75.7109ZM73.279 130.313L0.307979 150.475V146.144L71.1632 126.567L73.279 130.313L73.279 130.313ZM70.8501 126.013L0.30802 145.505V141.174L68.7334 122.267L70.8499 126.013L70.8501 126.013ZM68.4205 121.714L0.308233 140.533V136.201L66.3042 117.967L68.4207 121.714L68.4205 121.714ZM65.9915 117.414L0.30782 135.563V131.229L63.8748 113.667L65.9913 117.414H65.9915ZM63.5619 113.113L0.308033 130.59V126.259L61.4434 109.367L63.5621 113.113L63.5619 113.113ZM61.1322 108.814L0.308247 125.617V121.289L59.0137 105.068L61.1324 108.814L61.1322 108.814ZM58.7004 104.514L0.308079 120.647V116.317L56.5846 100.768L58.7004 104.514L58.7004 104.514ZM56.2715 100.214L0.30812 115.677V111.344L54.1552 96.4682L56.2717 100.214L56.2715 100.214ZM53.8418 95.9145L0.307879 110.705V106.374L51.7251 92.1677L53.8416 95.9145L53.8418 95.9145ZM51.4121 91.6148L0.308092 105.733V101.405L49.2964 87.868L51.4121 91.6148H51.4121ZM48.9832 87.3143L0.308133 100.763V96.4315L46.867 83.5682L48.9835 87.3143L48.9832 87.3143ZM46.5536 83.0145L0.307892 95.7927V91.4615L44.4377 79.2684L46.5535 83.0145L46.5536 83.0145ZM44.1247 78.7148L0.308024 90.8198V86.4892L42.0052 74.9687L44.1247 78.7148L44.1247 78.7148ZM41.695 74.4121L0.308011 85.8475V81.5192L39.5763 70.669L41.695 74.4121V74.4121ZM39.2661 70.1153L0.308006 80.8775V76.5469L37.1466 66.3685L39.266 70.1153L39.2661 70.1153ZM36.8335 65.8155L0.308015 75.9075V71.5769L34.7177 62.0688L36.8335 65.8156L36.8335 65.8155ZM34.4046 61.5151L0.308011 70.9352V66.6039L32.2881 57.769L34.4046 61.5151L34.4046 61.5151ZM31.9749 57.2153L0.308042 65.9652V61.6346L29.8592 53.4693L31.9749 57.2153L31.9749 57.2153ZM29.546 52.9156L0.308038 60.9929V56.6616L27.4266 49.1695L29.546 52.9156L29.546 52.9156ZM27.1163 48.6158L0.308024 56.0229V51.6916L24.9976 44.8698L27.1163 48.6159V48.6158ZM24.6845 44.3161L0.308038 51.0499V46.7194L22.5709 40.5693L24.6845 44.3161L24.6845 44.3161ZM22.2548 40.0163L0.308024 46.0806V41.7493L20.1391 36.2695L22.2549 40.0163L22.2548 40.0163ZM19.8259 35.7137L0.30802 41.1076V36.7771L17.7094 31.9698L19.8259 35.7137H19.8259ZM17.3963 31.4161L0.308006 36.1376V31.807L15.2805 27.6701L17.3962 31.4161L17.3963 31.4161ZM14.9673 27.1164L0.308002 31.1653V26.834L12.8508 23.3703L14.9673 27.1164H14.9673ZM12.5377 22.8166L0.308033 26.1953V21.8618L10.4212 19.0706L12.5377 22.8166L12.5377 22.8166ZM10.1088 18.5169L0.308029 21.223V16.8917L7.98934 14.7701L10.1088 18.5169H10.1088ZM7.67912 14.2142L0.308015 16.253V11.9217L5.56041 10.4704L7.67912 14.2142ZM5.24726 9.91667L0.308029 11.28V6.94946L3.13077 6.17062L5.24727 9.91667H5.24726ZM2.81761 5.61692L0.308015 6.31069V1.97721L0.701835 1.86794L2.81761 5.61692V5.61692ZM0.308015 1.1749L0.388686 1.31718L0.308015 1.33771V1.1749ZM83.4626 147.704L81.033 143.404L78.6033 139.104L76.1714 134.804L73.7425 130.505L71.3129 126.205L68.8839 121.905L66.4543 117.605L64.0246 113.305L61.5928 109.005L59.1661 104.705L56.7342 100.406L54.3053 96.1059L51.8756 91.8061L49.446 87.5056L47.0171 83.2059L44.5874 78.9061L42.1556 74.6064L39.7266 70.3066L37.297 66.0069L34.8673 61.7064L32.4384 57.4067L30.0088 53.1069L27.5798 48.8072L25.1502 44.5074L22.7183 40.2077L20.2887 35.9072L17.8598 31.6075L15.4301 27.3077L13.0012 23.008L10.5715 18.7083L8.13967 14.4085L5.71001 10.108L3.2811 5.80829L0.85144 1.50854L0 0V1.74395V6.714V11.6862V16.6563V21.6292V26.6015V31.5715V36.5416V41.5138V46.486V51.4561V56.4261V61.3991V66.3684V71.3414V76.3114V81.2836V86.2537V91.2259V96.196V101.169V106.138V111.111V116.081V121.053V126.024V130.996V135.966V140.939V145.908V150.881V155.851V160.823V165.793V170.766V175.736V180.709V185.678V190.651V195.621V200.591V205.56V210.536V211.03L84 187.882V187.327V182.354V177.381V172.411V167.441V162.469V157.499V152.527V148.658L83.4624 147.704L83.4626 147.704Z" fill="#EA5A29" fill-opacity="0.6"/>
</svg>
