<svg width="17" height="17" viewBox="0 0 17 17" fill="none" xmlns="http://www.w3.org/2000/svg">
<path fill-rule="evenodd" clip-rule="evenodd" d="M11.4858 0.0510894C9.98942 -0.0187135 6.28309 -0.015325 4.78538 0.0510894C3.46929 0.11276 2.30839 0.4306 1.37249 1.3665C-0.0271639 2.76616 -0.0142528 4.60103 0.00393829 7.18629C0.00607589 7.49008 0.00828639 7.80422 0.00828639 8.12925C0.00828639 8.43344 0.00665713 8.72743 0.00508159 9.01172C-0.0097276 11.6839 -0.0197908 13.4997 1.37249 14.892C2.77471 16.2936 4.62981 16.2798 7.18586 16.2608C7.49212 16.2585 7.80843 16.2562 8.13524 16.2562H8.17937C11.2791 16.2562 12.3557 16.2562 13.4585 15.8292C14.9651 15.2444 16.1022 13.8978 16.2134 11.4791C16.2839 9.98207 16.2798 6.27642 16.2134 4.77871C16.0792 1.92357 14.5469 0.19205 11.4858 0.0510894ZM13.8543 13.8571C12.91 14.8014 11.6289 14.7985 8.86173 14.7921L8.86107 14.7921C8.62374 14.7916 8.37549 14.791 8.11558 14.791L7.65013 14.7912C4.59991 14.7934 3.32161 14.7943 2.37684 13.847C1.39395 12.8688 1.4102 11.3804 1.43379 9.22033C1.43761 8.87083 1.44162 8.50375 1.44162 8.1184C1.44162 7.79163 1.43869 7.47283 1.43585 7.16299L1.43585 7.16296C1.4061 3.92251 1.38533 1.66077 4.8152 1.4851L4.85409 1.48372C5.68674 1.45429 5.9657 1.44444 8.1061 1.44444L8.13659 1.46477C8.44604 1.46477 8.74978 1.46199 9.04663 1.45928C12.2141 1.43032 14.5961 1.40855 14.7516 4.84377C14.7902 5.70105 14.799 5.95858 14.799 8.12857C14.799 8.32318 14.7992 8.5111 14.7993 8.69264V8.69409C14.8021 11.6358 14.8034 12.9037 13.8543 13.8571ZM8.13522 3.95585C5.82902 3.95585 3.96196 5.82494 3.96196 8.12911C3.96196 10.4353 5.83105 12.3024 8.13522 12.3024C10.4414 12.3024 12.3085 10.4333 12.3085 8.12911C12.3085 5.82291 10.4394 3.95585 8.13522 3.95585ZM8.13522 10.8379C6.63819 10.8379 5.42647 9.62547 5.42647 8.12911C5.42647 6.63276 6.63887 5.42036 8.13522 5.42036C9.63158 5.42036 10.844 6.63276 10.844 8.12911C10.8447 9.62547 9.63226 10.8379 8.13522 10.8379ZM13.449 3.79111C13.449 4.3297 13.0124 4.76631 12.4738 4.76631C11.9352 4.76631 11.4986 4.3297 11.4986 3.79111C11.4986 3.25251 11.9352 2.8159 12.4738 2.8159C13.0124 2.8159 13.449 3.25251 13.449 3.79111Z" fill="white"/>
</svg>
