<svg width="20" height="20" viewBox="0 0 20 20" fill="none" xmlns="http://www.w3.org/2000/svg">
<path fill-rule="evenodd" clip-rule="evenodd" d="M14.1111 0.0627669C12.2727 -0.0229909 7.71922 -0.0188279 5.87918 0.0627669C4.26227 0.138534 2.83602 0.529023 1.6862 1.67884C-0.0333728 3.39842 -0.0175106 5.6527 0.00483847 8.82887C0.00746466 9.20209 0.0101804 9.58805 0.0101804 9.98736C0.0101804 10.3611 0.00817876 10.7223 0.00624309 11.0715C-0.0119511 14.3545 -0.0243144 16.5854 1.6862 18.2959C3.40893 20.0179 5.68806 20.0009 8.82835 19.9776C9.2046 19.9748 9.59322 19.9719 9.99472 19.9719H10.0489C13.8572 19.9719 15.1799 19.9719 16.5348 19.4474C18.3857 18.7288 19.7828 17.0744 19.9193 14.1029C20.0059 12.2637 20.0009 7.71103 19.9193 5.87098C19.7545 2.36324 17.8719 0.235948 14.1111 0.0627669ZM17.021 17.0245C15.8609 18.1846 14.2869 18.181 10.8873 18.1732C10.5955 18.1725 10.2902 18.1718 9.97057 18.1718L9.39874 18.1721H9.39872C5.65132 18.1748 4.08084 18.1759 2.92012 17.012C1.71256 15.8102 1.73253 13.9816 1.76152 11.3278C1.7662 10.8984 1.77113 10.4475 1.77113 9.97404C1.77113 9.57256 1.76753 9.18089 1.76404 8.80021V8.8002C1.72749 4.81908 1.70198 2.04037 5.91581 1.82455L5.96359 1.82286C6.98656 1.78671 7.32929 1.77459 9.95892 1.77459L9.99638 1.79957C10.3766 1.79957 10.7497 1.79616 11.1144 1.79283C15.0059 1.75725 17.9323 1.7305 18.1234 5.95091C18.1709 7.00415 18.1817 7.32054 18.1817 9.98653C18.1816 10.2261 18.1818 10.4574 18.1821 10.6809V10.6813C18.1855 14.2954 18.187 15.8531 17.021 17.0245ZM9.99471 4.86004C7.16137 4.86004 4.86756 7.15635 4.86756 9.98719C4.86756 12.8205 7.16387 15.1143 9.99471 15.1143C12.828 15.1143 15.1219 12.818 15.1219 9.98719C15.1219 7.15385 12.8255 4.86004 9.99471 4.86004ZM9.99471 13.3151C8.15549 13.3151 6.6668 11.8256 6.6668 9.98719C6.6668 8.14881 8.15632 6.65929 9.99471 6.65929C11.8331 6.65929 13.3226 8.14881 13.3226 9.98719C13.3234 11.8256 11.8339 13.3151 9.99471 13.3151ZM16.5231 4.65767C16.5231 5.31937 15.9867 5.85578 15.325 5.85578C14.6633 5.85578 14.1269 5.31937 14.1269 4.65767C14.1269 3.99597 14.6633 3.45956 15.325 3.45956C15.9867 3.45956 16.5231 3.99597 16.5231 4.65767Z" fill="white"/>
</svg>
