<svg width="141" height="63" viewBox="0 0 141 63" fill="none" xmlns="http://www.w3.org/2000/svg">
<g clip-path="url(#clip0_2_14)">
<path fill-rule="evenodd" clip-rule="evenodd" d="M25.6092 56.0897V44.3759L0.533142 0V63L25.6092 56.0897Z" fill="#4C4746"/>
<path fill-rule="evenodd" clip-rule="evenodd" d="M50.6869 0V63L25.6103 56.0877V44.3778L50.6869 0Z" fill="#252626"/>
<path fill-rule="evenodd" clip-rule="evenodd" d="M50.6869 63L75.7627 56.0715V0L50.6869 63Z" fill="#4C4746"/>
<path fill-rule="evenodd" clip-rule="evenodd" d="M100.84 63L75.7642 56.0715V0L100.84 63Z" fill="#252626"/>
<path fill-rule="evenodd" clip-rule="evenodd" d="M100.84 0V63L140.467 56.0877L100.84 0Z" fill="#4C4746"/>
<path fill-rule="evenodd" clip-rule="evenodd" d="M140.466 31.5013V56.0877L100.84 0L140.466 31.5013Z" fill="#252626"/>
<path fill-rule="evenodd" clip-rule="evenodd" d="M122.797 0.078125V0.861891H120.402V1.7997H122.528V2.58347H120.402V4.31913H119.548V0.078125H122.797Z" fill="#252626"/>
<path fill-rule="evenodd" clip-rule="evenodd" d="M124.894 4.31726H124.068V0.0756836H124.894V4.31726Z" fill="#252626"/>
<path fill-rule="evenodd" clip-rule="evenodd" d="M130.18 4.26777L129.607 4.35253L129.515 4.11231C129.204 4.30297 128.88 4.3945 128.427 4.3945C127.664 4.3945 127.089 4.16159 126.696 3.70958C126.364 3.34178 126.173 2.84048 126.173 2.19021C126.173 1.54078 126.406 0.991886 126.824 0.596203C127.226 0.207558 127.791 0 128.442 0C129.155 0 129.734 0.268953 130.158 0.742365L129.607 1.29294C129.247 0.925983 128.921 0.76292 128.442 0.76292C128.017 0.76292 127.65 0.9119 127.403 1.18226C127.177 1.4346 127.049 1.79508 127.049 2.1902C127.049 2.63545 127.198 2.99593 127.452 3.24095C127.714 3.48991 128.038 3.61748 128.427 3.61748C128.788 3.61748 129.092 3.53271 129.339 3.36317L129.339 2.60757L128.272 2.54336V1.82296H130.18V4.26776L130.18 4.26777Z" fill="#252626"/>
<path fill-rule="evenodd" clip-rule="evenodd" d="M135.357 0.078125V4.31913H134.524V2.44463H132.454V4.31913H131.606V0.078125H132.454V1.68903H134.524V0.078125H135.357Z" fill="#252626"/>
<path fill-rule="evenodd" clip-rule="evenodd" d="M136.586 0.078125H140.464V0.841052H138.938V4.31913H138.112V0.841052H136.586V0.078125Z" fill="#252626"/>
<path fill-rule="evenodd" clip-rule="evenodd" d="M128.908 10.1551L128.336 10.2399L128.243 9.99964C127.933 10.1906 127.607 10.2827 127.155 10.2827C126.393 10.2827 125.818 10.0498 125.425 9.5972C125.09 9.22742 124.901 8.72867 124.901 8.07586C124.901 7.42812 125.132 6.87951 125.552 6.48439C125.955 6.09518 126.52 5.88819 127.169 5.88819C127.884 5.88734 128.463 6.15657 128.886 6.62971L128.336 7.1786C127.976 6.81333 127.65 6.65111 127.169 6.65111C126.746 6.65111 126.378 6.79727 126.13 7.07045C125.905 7.32194 125.777 7.68243 125.777 8.07586C125.778 8.52308 125.926 8.88356 126.18 9.12857C126.442 9.3781 126.767 9.50567 127.155 9.50567C127.516 9.50511 127.82 9.4209 128.067 9.25136V8.49492L126.998 8.43155V7.71058H128.908V10.1551L128.908 10.1551Z" fill="#252626"/>
<path fill-rule="evenodd" clip-rule="evenodd" d="M131.825 10.2044V9.17757L129.995 5.96533H130.971L132.207 8.28988H132.276L133.535 5.96533H134.461L132.658 9.18489V10.2044H131.825Z" fill="#252626"/>
<path fill-rule="evenodd" clip-rule="evenodd" d="M136.579 5.96533L138.013 7.97672L139.405 5.96533H140.289V10.2044H139.419V7.32165H139.39L138.141 9.12346H137.815L136.558 7.31517H136.53V10.2044H135.696V5.96533H136.579Z" fill="#252626"/>
</g>
<defs>
<clipPath id="clip0_2_14">
<rect width="141" height="63" fill="white"/>
</clipPath>
</defs>
</svg>
