<svg width="146" height="365" viewBox="0 0 146 365" fill="none" xmlns="http://www.w3.org/2000/svg">
<path d="M144.489 256.787V262.918L0.531474 302.693V295.217L143.832 255.626L144.489 256.787L144.489 256.787ZM144.489 264.026V271.504L0.531474 311.279V303.801L144.489 264.026ZM144.489 272.607V280.084L0.531474 319.863V312.381L144.489 272.607V272.607ZM144.489 281.192V288.668L0.531474 328.443V320.965L144.489 281.192V281.192ZM144.489 289.771V297.249L0.531474 337.023V329.551L144.489 289.771V289.771ZM144.489 298.357V305.829L0.531474 345.608V338.131L144.489 298.357ZM144.489 306.937V314.413L0.531474 354.193V346.712L144.489 306.937V306.937ZM144.489 315.521V322.999L0.531474 362.772V355.296L144.489 315.521V315.521ZM143.292 254.67L0.531968 294.113V286.636L139.638 248.201L143.292 254.67L143.292 254.67ZM139.098 247.246L0.532039 285.533V278.056L135.445 240.778L139.099 247.246L139.098 247.246ZM134.904 239.822L0.531623 276.948V269.472L131.249 233.355L134.903 239.822L134.904 239.822ZM130.709 232.399L0.531992 268.368V260.886L127.052 225.932L130.709 232.399H130.709ZM126.511 224.976L0.531702 259.783V252.306L122.858 218.508L126.511 224.976L126.511 224.976ZM122.317 217.552L0.531772 251.203V243.727L118.663 211.085L122.317 217.553L122.317 217.552ZM118.123 210.129L0.532141 242.619V235.141L114.469 203.661L118.123 210.129L118.123 210.129ZM113.929 202.706L0.531427 234.038V226.557L110.275 196.238L113.929 202.706H113.929ZM109.735 195.282L0.531796 225.453V217.977L106.077 188.814L109.735 195.282L109.735 195.282ZM105.54 187.859L0.532165 216.869V209.396L101.883 181.391L105.54 187.858L105.54 187.859ZM101.342 180.435L0.531874 208.288V200.812L97.6889 173.968L101.342 180.435L101.342 180.435ZM97.1483 173.012L0.531945 199.708V192.227L93.4948 166.545L97.1488 173.012L97.1483 173.012ZM92.9537 165.589L0.531529 191.124V183.646L89.2994 159.12L92.9534 165.589L92.9537 165.589ZM88.7591 158.166L0.531898 182.54V175.067L85.1063 151.697L88.7591 158.166H88.7591ZM84.5658 150.741L0.531968 173.959V166.482L80.9122 144.274L84.5662 150.741L84.5658 150.741ZM80.3711 143.318L0.531553 165.379V157.901L76.7182 136.851L80.3709 143.318L80.3711 143.318ZM76.1778 135.895L0.53178 156.793V149.317L72.5188 129.428L76.1778 135.895L76.1778 135.895ZM71.9832 128.467L0.531757 148.209V140.737L68.3254 122.005L71.9832 128.467ZM67.7899 121.049L0.531749 139.629V132.152L64.1307 114.58L67.7898 121.049L67.7899 121.049ZM63.5902 113.625L0.531764 131.048V123.572L59.9374 107.157L63.5901 113.626L63.5902 113.625ZM59.3968 106.201L0.531757 122.464V114.987L55.7428 99.7338L59.3968 106.201L59.3968 106.201ZM55.2022 98.7778L0.531811 113.884V106.407L51.5496 92.3106L55.2023 98.7779L55.2022 98.7778ZM51.0089 91.3547L0.531804 105.3V97.822L47.3499 84.8874L51.0089 91.3547L51.0089 91.3547ZM46.8143 83.9315L0.53178 96.7192V89.2416L43.1565 77.4642L46.8143 83.9315V83.9315ZM42.6159 76.5083L0.531804 88.1337V80.6574L38.967 70.0398L42.6159 76.5084L42.6159 76.5083ZM38.4213 69.0851L0.53178 79.5545V72.0769L34.7686 62.6166L38.4213 69.0851L38.4213 69.0851ZM34.2279 61.6569L0.531772 70.9691V63.4927L30.5739 55.1934L34.2279 61.6569H34.2279ZM30.0333 54.2375L0.531749 62.3887V54.9123L26.3806 47.7702L30.0333 54.2375L30.0333 54.2375ZM25.84 46.8143L0.531741 53.8045V46.3269L22.186 40.3471L25.8399 46.8143H25.84ZM21.6454 39.3912L0.531796 45.2241V37.7427L17.9914 32.9239L21.6454 39.3912L21.6454 39.3912ZM17.452 31.968L0.531788 36.6399V29.1623L13.793 25.4995L17.452 31.968H17.452ZM13.2574 24.5397L0.531764 28.0595V20.5819L9.59962 18.0763L13.2574 24.5397ZM9.05899 17.1204L0.531788 19.4741V11.9977L5.40503 10.6531L9.05901 17.1204H9.05899ZM4.86438 9.69718L0.531764 10.8949V3.4135L1.21166 3.22485L4.86438 9.69718V9.69718ZM0.531764 2.02838L0.671036 2.27401L0.531764 2.30946V2.02838ZM144.092 255L139.897 247.577L135.703 240.152L131.504 232.729L127.311 225.306L123.116 217.883L118.923 210.46L114.728 203.036L110.534 195.612L106.335 188.189L102.146 180.766L97.9472 173.343L93.7539 165.919L89.5593 158.496L85.3647 151.072L81.1713 143.649L76.9767 136.225L72.7783 128.802L68.585 121.379L64.3904 113.956L60.1958 106.531L56.0024 99.1082L51.8078 91.685L47.6145 84.2618L43.4198 76.8387L39.2214 69.4155L35.0268 61.9911L30.8335 54.5679L26.6389 47.1447L22.4455 39.7215L18.2509 32.2984L14.0525 24.8752L9.8579 17.4507L5.66456 10.0276L1.46995 2.60438L0 0V3.0108V11.5912V20.1754V28.7558V37.3412V45.9254V54.5058V63.0862V71.6704V80.2545V88.8349V97.4153V106.001V114.58V123.165V131.746V140.33V148.91V157.495V166.075V174.66V183.24V191.825V200.405V208.99V217.57V226.154V234.734V243.32V251.899V260.484V269.065V277.649V286.229V294.814V303.394V311.979V320.559V329.144V337.724V346.305V354.884V363.473V364.327L145.02 324.365V323.405V314.819V306.235V297.655V289.074V280.49V271.91V263.326V256.647L144.091 255L144.092 255Z" fill="#EAEAEA"/>
</svg>
