<svg width="155" height="209" viewBox="0 0 155 209" fill="none" xmlns="http://www.w3.org/2000/svg">
<path d="M5.21069 206.773L0.855433 208.118L73.8162 2.98993V13.8886L5.21065 206.773L5.21069 206.773ZM10.1862 205.232L5.8309 206.58L73.8162 15.4391V26.3327L10.1861 205.232L10.1862 205.232ZM15.1594 203.696L10.8064 205.043L73.8162 27.8854V38.7811L15.1593 203.695L15.1594 203.696ZM20.1342 202.158L15.7789 203.506L73.8164 40.3317V51.2275L20.1344 202.158L20.1342 202.158ZM25.1075 200.624L20.7522 201.966L73.8163 52.7802V63.6737L25.1074 200.624L25.1075 200.624ZM30.0829 199.084L25.7277 200.429L73.8163 65.2235V76.12L30.0829 199.084L30.0829 199.084ZM35.0533 197.544L30.7002 198.892L73.8163 77.6727V88.5663L35.0532 197.544L35.0533 197.544ZM40.031 196.007L35.6728 197.352L73.8163 90.1191V101.015L40.0309 196.007L40.031 196.007ZM40.6483 195.814L73.8163 102.565V185.561L40.6483 195.814V195.814ZM0.191727 208.443L0 208.978L14.9235 204.367V204.37L39.7928 196.678V196.681L74.3291 185.997V99.5753V87.1261V74.6799V62.2343V49.788V37.3418V24.8926V12.4463V0L0.19175 208.444L0.191727 208.443Z" fill="white" fill-opacity="0.5"/>
<path d="M81.0225 13.8895V2.99085L153.983 208.121L149.628 206.773L81.0225 13.8894L81.0225 13.8895ZM81.0225 26.3336V15.44L149.011 206.579L144.653 205.236L81.0225 26.3337L81.0225 26.3336ZM81.0225 38.7821V27.8863L144.035 205.044L139.679 203.694L81.0226 38.7822L81.0225 38.7821ZM81.0225 51.2284V40.3326L139.06 203.504L134.707 202.159L81.0226 51.2284L81.0225 51.2284ZM81.0225 63.6746V52.7811L134.087 201.967L129.731 200.622L81.0225 63.6747L81.0225 63.6746ZM81.0225 76.1238V65.2273L129.114 200.43L124.759 199.085L81.0225 76.124L81.0225 76.1238ZM81.0225 88.5672V77.6736L124.139 198.89L119.783 197.547L81.0225 88.5673L81.0225 88.5672ZM81.0225 101.016V90.1199L119.165 197.353L114.81 196.008L81.0225 101.016L81.0225 101.016ZM81.0225 185.562V102.566L114.19 195.815L81.0225 185.562V185.562ZM80.5098 0.00390625V12.4502V24.8936V37.3428V49.789V62.2353V74.6838V87.1272V99.5763V185.998L115.046 196.679V196.677L139.918 204.368L139.915 204.365L154.839 208.979L154.649 208.444L80.5098 0.00443629L80.5098 0.00390625Z" fill="white" fill-opacity="0.5"/>
</svg>
